<?xml version="1.0" encoding="utf-8" ?>
<svg baseProfile="full" height="200mm" version="1.1" viewBox="0,0,200,200" width="200mm" xmlns="http://www.w3.org/2000/svg" xmlns:ev="http://www.w3.org/2001/xml-events" xmlns:xlink="http://www.w3.org/1999/xlink"><defs /><rect fill="#1a1a1a" height="200" width="200" x="0" y="0" /><text alignment-baseline="middle" fill="#e1ed5e" style="dominant-baseline: central; font-size:9.0px; font-family:Arial;" text-anchor="middle" x="100.0" y="100.0">2025</text><line stroke="#e1ed5e" stroke-width="0.3" x1="100.0" x2="100.0" y1="15.0" y2="10.0" /><path d="M 100.0 14.0 a86.0,86.0 0 0,1 42.46469731375804,11.215312516191453" fill="none" id="id13" stroke="none" /><text fill="#e1ed5e" style="font-size:6.75px; font-family:Arial;" text-anchor="middle"><textPath startOffset="22.20632615414155" xlink:href="#id13">January</textPath></text><line stroke="#e1ed5e" stroke-width="0.3" x1="143.23703022742887" x2="145.7803849466894" y1="26.81831364943548" y2="22.513508569990506" /><path d="M 143.74570117128098 25.957352633546492 a86.0,86.0 0 0,1 28.547481713284135,27.462654790039103" fill="none" id="id14" stroke="none" /><text fill="#e1ed5e" style="font-size:6.75px; font-family:Arial;" text-anchor="middle"><textPath startOffset="19.985693538727396" xlink:href="#id14">February</textPath></text><line stroke="#e1ed5e" stroke-width="0.3" x1="172.23445277983987" x2="176.4835382374775" y1="55.19839476539836" y2="52.563006222186495" /><path d="M 173.08426987136738 54.67131705675599 a86.0,86.0 0 0,1 12.851231095245387,41.99856678651699" fill="none" id="id15" stroke="none" /><text fill="#e1ed5e" style="font-size:6.75px; font-family:Arial;" text-anchor="middle"><textPath startOffset="22.20632615414155" xlink:href="#id15">March</textPath></text><path d="M 120.73433829027371 96.67025291283417 l 2.3964137095088978 -0.38484235460866395 a23.427118106937307,23.427118106937307 0 0,0 0.06051348052394354,0.3987082288340437 l -2.4026830834721413 0.34353501338253806" fill="#ff0b01" stroke="none" /><line stroke="#e1ed5e" stroke-width="0.3" x1="184.98032266829074" x2="189.97916517819016" y1="98.17113171792111" y2="98.06355123074" /><path d="M 185.9800911702706 98.14961562048488 a86.0,86.0 0 0,1 -9.607161424134198,41.387399972396054" fill="none" id="id16" stroke="none" /><text fill="#e1ed5e" style="font-size:6.75px; font-family:Arial;" text-anchor="middle"><textPath startOffset="21.466115282336823" xlink:href="#id16">April</textPath></text><path d="M 120.95626037817324 101.35467743843564 l 15.109484612999896 0.9767237828816132 a36.14102092391815,36.14102092391815 0 0,0 -0.04547476886638551,0.6204670913097527 l -15.090433285469173 -1.2366640106881364" fill="#ffbb11" stroke="none" /><path d="M 118.97047184881838 109.00673069616215 l 17.06567545884076 8.102378487515384 a39.89142175754466,39.89142175754466 0 0,0 -0.29984433397320737,0.617768138942887 l -16.923677868252838 -8.394935582423548" fill="#ffeb16" stroke="none" /><line stroke="#e1ed5e" stroke-width="0.3" x1="174.80103733775053" x2="179.2010983576182" y1="140.37084112569926" y2="142.7455964860345" /><path d="M 175.68104954172406 140.8457921977663 a86.0,86.0 0 0,1 -30.038265399797805,32.042727171017184" fill="none" id="id17" stroke="none" /><text fill="#e1ed5e" style="font-size:6.75px; font-family:Arial;" text-anchor="middle"><textPath startOffset="22.206326154141568" xlink:href="#id17">May</textPath></text><path d="M 118.48025628344425 109.97397251340804 l 1.496093303347514 0.8074559820065912 a22.700082449529877,22.700082449529877 0 0,0 -0.1885442803139892,0.34226263515817756 l -1.4819726135820153 -0.8330891355625738" fill="#ff0000" stroke="none" /><path d="M 118.30583269289576 110.29060199501025 l 2.702299186509721 1.5190942617214842 a24.100011011175,24.100011011175 0 0,0 -0.20639708919359506,0.3598707222714552 l -2.6757501011637466 -1.5653848298512545" fill="#ff1502" stroke="none" /><path d="M 117.55443506779139 111.5257021239791 l 52.663305203374144 34.5771063719373 a84.0,84.0 0 0,0 -0.8039875783571158,1.2018523431767725 l -52.0603145196063 -35.47849562931987" fill="#4dd2ff" stroke="none" /><path d="M 116.27256486870786 113.27417163493432 l 6.831873452676099 5.57302807090761 a29.816639765381403,29.816639765381403 0 0,0 -0.32784673293141936,0.3949125095921307 l -6.734930719851136 -5.689801837613512" fill="#ff6609" stroke="none" /><path d="M 115.80600337817218 113.82643327865902 l 7.0459264419201615 6.1634829187803355 a30.36128202304827,30.36128202304827 0 0,0 -0.34747930702717367,0.39039668504787206 l -6.93878828524465 -6.283853773569074" fill="#ff6d0a" stroke="none" /><path d="M 115.56566222782051 114.09645910891815 l 7.066833810823647 6.399813408885985 a30.534031244880474,30.534031244880474 0 0,0 -0.3561628872287776,0.3865444710623005 l -6.955624515599148 -6.52050913474962" fill="#ff700a" stroke="none" /><path d="M 115.32070863581623 114.36230785411682 l 15.821826969625665 14.832078277443566 a42.686879782139876,42.686879782139876 0 0,0 -0.5071474689389349,0.5317420936336119 l -15.564172949307764 -15.102227487659684" fill="#f1ff19" stroke="none" /><path d="M 115.07121518719521 114.62390073753431 l 7.8258006041457575 7.593530435687579 a31.904350488385894,31.904350488385894 0 0,0 -0.3858289956209333,0.39084273554809024 l -7.693930983469288 -7.727113665216334" fill="#ff820c" stroke="none" /><path d="M 114.81725581225074 114.88116024355365 l 6.4035309710512225 6.431148365946794 a30.075509803974228,30.075509803974228 0 0,0 -0.3700004471513814,0.36212331230886 l -6.291880571524047 -6.5404217811782255" fill="#ff6909" stroke="none" /><path d="M 114.55890576462653 115.13401014063108 l 7.119435474339203 7.400666671392666 a31.269188315263367,31.269188315263367 0 0,0 -0.39110929800501715,0.36981825307526545 l -6.990990341943378 -7.522119561213853" fill="#ff7a0b" stroke="none" /><path d="M 114.29624159901734 115.38237550388516 l 5.927494546194817 6.377826387116126 a29.707000690212677,29.707000690212677 0 0,0 -0.37756246991456893,0.3448943643472011 l -5.816832526813384 -6.47891351804991" fill="#ff6409" stroke="none" /><path d="M 114.0293411484842 115.62618273729858 l 5.908615974701542 6.581143901770719 a29.844387926380897,29.844387926380897 0 0,0 -0.3852166462032308,0.33990890190289613 l -5.794456975591724 -6.6818759454459045" fill="#ff6609" stroke="none" /><path d="M 113.75828350139079 115.86535959552629 l 5.602132394017074 6.460096924434126 a29.550832686538705,29.550832686538705 0 0,0 -0.3871644889505829,0.329949976837897 l -5.490102428489444 -6.55557129149497" fill="#ff6209" stroke="none" /><path d="M 113.48314897796784 116.09983520530334 l 5.715190327334472 6.8243421909365285 a29.901407013312777,29.901407013312777 0 0,0 -0.3974464712361365,0.3270713878093402 l -5.596873727553644 -6.921708697603047" fill="#ff6709" stroke="none" /><path d="M 113.20401910651253 116.32954008644616 l 5.352934714870115 6.6200269252479105 a29.51344034763085,29.51344034763085 0 0,0 -0.3977884835490633,0.3160272292959497 l -5.238188738603701 -6.711188068548986" fill="#ff6209" stroke="none" /><path d="M 112.92097659922987 116.55440617244103 l 5.265880337953198 6.746666654836605 a29.5584465112032,29.5584465112032 0 0,0 -0.4037842444964722,0.30960454043641394 l -5.148967364963232 -6.83631053710039" fill="#ff6209" stroke="none" /><path d="M 112.63410532772338 116.77436683061366 l 5.122806705990938 6.801576895204204 a29.514963112563752,29.514963112563752 0 0,0 -0.4084519941929856,0.30216302059590033 l -5.004969741379388 -6.888749864539873" fill="#ff6209" stroke="none" /><path d="M 112.34349029814194 116.9893568818739 l 5.408740697743897 7.444492908891338 a30.201899293404843,30.201899293404843 0 0,0 -0.4232187432909108,0.30195533618349363 l -5.279794626604101 -7.536492506919051" fill="#ff6b09" stroke="none" /><path d="M 112.04921762599082 117.19931262002967 l 5.785096193762459 8.257770841389572 a31.08256501293142,31.08256501293142 0 0,0 -0.4408441903506316,0.3032166539551082 l -5.642095118788944 -8.356128284709774" fill="#ff770b" stroke="none" /><path d="M 111.7513745106137 117.40417183066458 l 4.985487079843442 7.383670201199473 a29.90919003408093,29.90919003408093 0 0,0 -0.42916169987919517,0.28442497320770377 l -4.857650681224283 -7.468393195498495" fill="#ff6709" stroke="none" /><path d="M 111.45004920935366 117.60387380957326 l 4.8481486677753685 7.45378432852918 a29.89176283540442,29.89176283540442 0 0,0 -0.43374114784976053,0.27683412230985105 l -4.719125717878677 -7.53613287966284" fill="#ff6709" stroke="none" /><line stroke="#e1ed5e" stroke-width="0.3" x1="143.8653032363475" x2="146.44561519142675" y1="172.8068346515853" y2="177.08958963109032" /><path d="M 144.38136562736335 173.6633856474863 a86.0,86.0 0 0,1 -40.68145358897372,12.25698825130547" fill="none" id="id18" stroke="none" /><text fill="#e1ed5e" style="font-size:6.75px; font-family:Arial;" text-anchor="middle"><textPath startOffset="21.466115282336833" xlink:href="#id18">June</textPath></text><line stroke="#e1ed5e" stroke-width="0.3" x1="102.19456741930631" x2="102.32365962044197" y1="184.97166512339345" y2="189.96999836594603" /><path d="M 102.22038585953345 185.97133177190398 a86.0,86.0 0 0,1 -42.740103519485714,-10.115201625700543" fill="none" id="id19" stroke="none" /><text fill="#e1ed5e" style="font-size:6.75px; font-family:Arial;" text-anchor="middle"><textPath startOffset="22.20632615414155" xlink:href="#id19">July</textPath></text><line stroke="#e1ed5e" stroke-width="0.3" x1="58.666819895761336" x2="56.23545636021788" y1="174.27360380694188" y2="178.64263932499728" /><path d="M 58.180547188652646 175.14741091055294 a86.0,86.0 0 0,1 -31.652253787137756,-30.449443065178592" fill="none" id="id20" stroke="none" /><text fill="#e1ed5e" style="font-size:6.75px; font-family:Arial;" text-anchor="middle"><textPath startOffset="22.20632615414155" xlink:href="#id20">August</textPath></text><line stroke="#e1ed5e" stroke-width="0.3" x1="26.63291911575756" x2="22.317208475507996" y1="142.92168965132927" y2="145.44649492493687" /><path d="M 25.769776987707644 143.4266507060508 a86.0,86.0 0 0,1 -11.730757126820373,-40.83630448921669" fill="none" id="id21" stroke="none" /><text fill="#e1ed5e" style="font-size:6.75px; font-family:Arial;" text-anchor="middle"><textPath startOffset="21.46611528233685" xlink:href="#id21">September</textPath></text><line stroke="#e1ed5e" stroke-width="0.3" x1="15.007084014347285" x2="10.007500721073583" y1="101.09737516637583" y2="101.16192664675087" /><path d="M 14.007167355692545 101.11028546245083 a86.0,86.0 0 0,1 10.666146001902534,-42.60595125391555" fill="none" id="id22" stroke="none" /><text fill="#e1ed5e" style="font-size:6.75px; font-family:Arial;" text-anchor="middle"><textPath startOffset="22.20632615414155" xlink:href="#id22">October</textPath></text><line stroke="#e1ed5e" stroke-width="0.3" x1="26.266209847984243" x2="21.928928074336255" y1="57.711370442889674" y2="55.22380399835377" /><path d="M 25.398753493254645 57.213857153982495 a86.0,86.0 0 0,1 29.58750427330803,-30.492523968695096" fill="none" id="id23" stroke="none" /><text fill="#e1ed5e" style="font-size:6.75px; font-family:Arial;" text-anchor="middle"><textPath startOffset="21.46611528233685" xlink:href="#id23">November</textPath></text><line stroke="#e1ed5e" stroke-width="0.3" x1="56.762969772571076" x2="54.21961505331055" y1="26.818313649435495" y2="22.513508569990535" /><path d="M 56.25429882871897 25.957352633546506 a86.0,86.0 0 0,1 42.265352541879196,-11.944610805530505" fill="none" id="id24" stroke="none" /><text fill="#e1ed5e" style="font-size:6.75px; font-family:Arial;" text-anchor="middle"><textPath startOffset="22.20632615414155" xlink:href="#id24">December</textPath></text></svg>